<mxfile host="app.diagrams.net" agent="Mozilla/5.0 (Windows NT 10.0; Win64; x64) AppleWebKit/537.36 (KHTML, like Gecko) Chrome/131.0.0.0 Safari/537.36" version="24.8.6" pages="3">
  <diagram name="Home" id="rxFP7hOsGR-TYJrm65fy">
    <mxGraphModel dx="1434" dy="746" grid="1" gridSize="10" guides="1" tooltips="1" connect="1" arrows="1" fold="1" page="1" pageScale="1" pageWidth="850" pageHeight="1100" background="none" math="0" shadow="1">
      <root>
        <mxCell id="7JqddZ-aKLEcAY00F4ZS-0" />
        <mxCell id="7JqddZ-aKLEcAY00F4ZS-1" parent="7JqddZ-aKLEcAY00F4ZS-0" />
        <mxCell id="7JqddZ-aKLEcAY00F4ZS-2" value="" style="rounded=0;whiteSpace=wrap;html=1;" vertex="1" parent="7JqddZ-aKLEcAY00F4ZS-1">
          <mxGeometry width="780" height="40" as="geometry" />
        </mxCell>
        <mxCell id="7JqddZ-aKLEcAY00F4ZS-3" value="Home" style="rounded=1;whiteSpace=wrap;html=1;" vertex="1" parent="7JqddZ-aKLEcAY00F4ZS-1">
          <mxGeometry x="10" y="5" width="70" height="30" as="geometry" />
        </mxCell>
        <mxCell id="7JqddZ-aKLEcAY00F4ZS-4" value="AI In Action" style="rounded=1;whiteSpace=wrap;html=1;" vertex="1" parent="7JqddZ-aKLEcAY00F4ZS-1">
          <mxGeometry x="90" y="5" width="70" height="30" as="geometry" />
        </mxCell>
        <mxCell id="7JqddZ-aKLEcAY00F4ZS-6" value="Ethics" style="rounded=1;whiteSpace=wrap;html=1;" vertex="1" parent="7JqddZ-aKLEcAY00F4ZS-1">
          <mxGeometry x="170" y="5" width="70" height="30" as="geometry" />
        </mxCell>
        <mxCell id="7JqddZ-aKLEcAY00F4ZS-11" value="TITLE" style="rounded=1;whiteSpace=wrap;html=1;" vertex="1" parent="7JqddZ-aKLEcAY00F4ZS-1">
          <mxGeometry y="40" width="780" height="40" as="geometry" />
        </mxCell>
        <mxCell id="7JqddZ-aKLEcAY00F4ZS-13" value="CONTACT INFORMATION(EMAIL,ETC)" style="rounded=1;whiteSpace=wrap;html=1;" vertex="1" parent="7JqddZ-aKLEcAY00F4ZS-1">
          <mxGeometry y="800" width="530" height="60" as="geometry" />
        </mxCell>
        <mxCell id="7JqddZ-aKLEcAY00F4ZS-14" value="Search" style="rounded=1;whiteSpace=wrap;html=1;" vertex="1" parent="7JqddZ-aKLEcAY00F4ZS-1">
          <mxGeometry x="660" y="2.5" width="120" height="35" as="geometry" />
        </mxCell>
        <mxCell id="B5DE4CC-C4cjsm6VQ-6_-2" value="IMAGE" style="rounded=0;whiteSpace=wrap;html=1;sketch=1;hachureGap=4;jiggle=2;curveFitting=1;fontFamily=Architects Daughter;fontSource=https%3A%2F%2Ffonts.googleapis.com%2Fcss%3Ffamily%3DArchitects%2BDaughter;" vertex="1" parent="7JqddZ-aKLEcAY00F4ZS-1">
          <mxGeometry y="80" width="780" height="100" as="geometry" />
        </mxCell>
        <mxCell id="B5DE4CC-C4cjsm6VQ-6_-3" value="" style="swimlane;startSize=0;sketch=1;hachureGap=4;jiggle=2;curveFitting=1;fontFamily=Architects Daughter;fontSource=https%3A%2F%2Ffonts.googleapis.com%2Fcss%3Ffamily%3DArchitects%2BDaughter;" vertex="1" parent="7JqddZ-aKLEcAY00F4ZS-1">
          <mxGeometry y="200" width="480" height="140" as="geometry" />
        </mxCell>
        <mxCell id="B5DE4CC-C4cjsm6VQ-6_-4" value="WHAT IS AI?" style="text;html=1;align=center;verticalAlign=middle;resizable=0;points=[];autosize=1;strokeColor=none;fillColor=none;fontFamily=Architects Daughter;fontSource=https%3A%2F%2Ffonts.googleapis.com%2Fcss%3Ffamily%3DArchitects%2BDaughter;fontSize=20;" vertex="1" parent="B5DE4CC-C4cjsm6VQ-6_-3">
          <mxGeometry x="175" y="50" width="140" height="40" as="geometry" />
        </mxCell>
        <mxCell id="B5DE4CC-C4cjsm6VQ-6_-5" value="" style="swimlane;startSize=0;sketch=1;hachureGap=4;jiggle=2;curveFitting=1;fontFamily=Architects Daughter;fontSource=https%3A%2F%2Ffonts.googleapis.com%2Fcss%3Ffamily%3DArchitects%2BDaughter;" vertex="1" parent="7JqddZ-aKLEcAY00F4ZS-1">
          <mxGeometry x="570" y="210" width="200" height="200" as="geometry" />
        </mxCell>
        <mxCell id="B5DE4CC-C4cjsm6VQ-6_-6" value="image" style="text;html=1;align=center;verticalAlign=middle;resizable=0;points=[];autosize=1;strokeColor=none;fillColor=none;fontFamily=Architects Daughter;fontSource=https%3A%2F%2Ffonts.googleapis.com%2Fcss%3Ffamily%3DArchitects%2BDaughter;fontSize=20;" vertex="1" parent="7JqddZ-aKLEcAY00F4ZS-1">
          <mxGeometry x="625" y="293" width="70" height="40" as="geometry" />
        </mxCell>
        <mxCell id="B5DE4CC-C4cjsm6VQ-6_-9" value="TYPE OF AI" style="rounded=0;whiteSpace=wrap;html=1;sketch=1;hachureGap=4;jiggle=2;curveFitting=1;fontFamily=Architects Daughter;fontSource=https%3A%2F%2Ffonts.googleapis.com%2Fcss%3Ffamily%3DArchitects%2BDaughter;" vertex="1" parent="7JqddZ-aKLEcAY00F4ZS-1">
          <mxGeometry y="350" width="490" height="60" as="geometry" />
        </mxCell>
        <mxCell id="B5DE4CC-C4cjsm6VQ-6_-12" value="IMAGE" style="rounded=0;whiteSpace=wrap;html=1;sketch=1;hachureGap=4;jiggle=2;curveFitting=1;fontFamily=Architects Daughter;fontSource=https%3A%2F%2Ffonts.googleapis.com%2Fcss%3Ffamily%3DArchitects%2BDaughter;" vertex="1" parent="7JqddZ-aKLEcAY00F4ZS-1">
          <mxGeometry x="20" y="460" width="310" height="230" as="geometry" />
        </mxCell>
        <mxCell id="B5DE4CC-C4cjsm6VQ-6_-15" value="TIME LINE" style="rounded=1;whiteSpace=wrap;html=1;sketch=1;hachureGap=4;jiggle=2;curveFitting=1;fontFamily=Architects Daughter;fontSource=https%3A%2F%2Ffonts.googleapis.com%2Fcss%3Ffamily%3DArchitects%2BDaughter;" vertex="1" parent="7JqddZ-aKLEcAY00F4ZS-1">
          <mxGeometry x="440" y="460" width="370" height="240" as="geometry" />
        </mxCell>
        <mxCell id="_T3fgowtOMY5vnbdyyJw-0" value="" style="endArrow=none;html=1;rounded=0;sketch=1;hachureGap=4;jiggle=2;curveFitting=1;fontFamily=Architects Daughter;fontSource=https%3A%2F%2Ffonts.googleapis.com%2Fcss%3Ffamily%3DArchitects%2BDaughter;" edge="1" parent="7JqddZ-aKLEcAY00F4ZS-1">
          <mxGeometry width="50" height="50" relative="1" as="geometry">
            <mxPoint x="50" y="430" as="sourcePoint" />
            <mxPoint x="790" y="430" as="targetPoint" />
            <Array as="points">
              <mxPoint x="50" y="430" />
            </Array>
          </mxGeometry>
        </mxCell>
        <mxCell id="_T3fgowtOMY5vnbdyyJw-2" value="" style="endArrow=none;html=1;rounded=0;sketch=1;hachureGap=4;jiggle=2;curveFitting=1;fontFamily=Architects Daughter;fontSource=https%3A%2F%2Ffonts.googleapis.com%2Fcss%3Ffamily%3DArchitects%2BDaughter;" edge="1" parent="7JqddZ-aKLEcAY00F4ZS-1">
          <mxGeometry width="50" height="50" relative="1" as="geometry">
            <mxPoint y="750" as="sourcePoint" />
            <mxPoint x="850" y="750" as="targetPoint" />
            <Array as="points">
              <mxPoint y="750" />
            </Array>
          </mxGeometry>
        </mxCell>
      </root>
    </mxGraphModel>
  </diagram>
  <diagram name="PAGE 2" id="BKAjiHn0HO5WTlFFqVLk">
    <mxGraphModel dx="1434" dy="746" grid="1" gridSize="10" guides="1" tooltips="1" connect="1" arrows="1" fold="1" page="1" pageScale="1" pageWidth="850" pageHeight="1100" background="none" math="0" shadow="1">
      <root>
        <mxCell id="0" />
        <mxCell id="1" parent="0" />
        <mxCell id="LyN5ED30h-QZfiKnpVJL-2" value="" style="rounded=0;whiteSpace=wrap;html=1;" vertex="1" parent="1">
          <mxGeometry width="780" height="40" as="geometry" />
        </mxCell>
        <mxCell id="LyN5ED30h-QZfiKnpVJL-6" value="Home" style="rounded=1;whiteSpace=wrap;html=1;" vertex="1" parent="1">
          <mxGeometry x="10" y="5" width="70" height="30" as="geometry" />
        </mxCell>
        <mxCell id="LyN5ED30h-QZfiKnpVJL-8" value="AI In Action" style="rounded=1;whiteSpace=wrap;html=1;" vertex="1" parent="1">
          <mxGeometry x="90" y="5" width="70" height="30" as="geometry" />
        </mxCell>
        <mxCell id="LyN5ED30h-QZfiKnpVJL-12" value="Ethics" style="rounded=1;whiteSpace=wrap;html=1;" vertex="1" parent="1">
          <mxGeometry x="170" y="5" width="70" height="30" as="geometry" />
        </mxCell>
        <mxCell id="LyN5ED30h-QZfiKnpVJL-14" value="INFROMATION" style="whiteSpace=wrap;html=1;aspect=fixed;" vertex="1" parent="1">
          <mxGeometry y="90" width="310" height="310" as="geometry" />
        </mxCell>
        <mxCell id="LyN5ED30h-QZfiKnpVJL-15" value="IMAGE" style="whiteSpace=wrap;html=1;aspect=fixed;" vertex="1" parent="1">
          <mxGeometry x="470" y="90" width="310" height="310" as="geometry" />
        </mxCell>
        <mxCell id="LyN5ED30h-QZfiKnpVJL-16" value="INFROMATION" style="whiteSpace=wrap;html=1;aspect=fixed;" vertex="1" parent="1">
          <mxGeometry x="470" y="440" width="310" height="310" as="geometry" />
        </mxCell>
        <mxCell id="LyN5ED30h-QZfiKnpVJL-17" value="IMAGE" style="whiteSpace=wrap;html=1;aspect=fixed;" vertex="1" parent="1">
          <mxGeometry y="450" width="310" height="310" as="geometry" />
        </mxCell>
        <mxCell id="LyN5ED30h-QZfiKnpVJL-18" value="TITLE" style="rounded=1;whiteSpace=wrap;html=1;" vertex="1" parent="1">
          <mxGeometry y="40" width="190" height="40" as="geometry" />
        </mxCell>
        <mxCell id="LyN5ED30h-QZfiKnpVJL-19" value="TITLE" style="rounded=1;whiteSpace=wrap;html=1;" vertex="1" parent="1">
          <mxGeometry x="590" y="400" width="190" height="40" as="geometry" />
        </mxCell>
        <mxCell id="JKvv_TsK4Yoa0xDY0kvj-1" value="RESOURCES" style="rounded=1;whiteSpace=wrap;html=1;" vertex="1" parent="1">
          <mxGeometry y="850" width="530" height="60" as="geometry" />
        </mxCell>
        <mxCell id="Lx6qKH_wtANPXv57DGXS-1" value="Search" style="rounded=1;whiteSpace=wrap;html=1;" vertex="1" parent="1">
          <mxGeometry x="660" y="2.5" width="120" height="35" as="geometry" />
        </mxCell>
        <mxCell id="PwHOCismIz3xnkq9SflI-1" value="" style="endArrow=none;html=1;rounded=0;sketch=1;hachureGap=4;jiggle=2;curveFitting=1;fontFamily=Architects Daughter;fontSource=https%3A%2F%2Ffonts.googleapis.com%2Fcss%3Ffamily%3DArchitects%2BDaughter;" edge="1" parent="1">
          <mxGeometry width="50" height="50" relative="1" as="geometry">
            <mxPoint y="830" as="sourcePoint" />
            <mxPoint x="780" y="840" as="targetPoint" />
          </mxGeometry>
        </mxCell>
      </root>
    </mxGraphModel>
  </diagram>
  <diagram name=" PAGE 3" id="Q6ABwI4ixO4LEqwsvUKH">
    <mxGraphModel dx="1434" dy="746" grid="1" gridSize="10" guides="1" tooltips="1" connect="1" arrows="1" fold="1" page="1" pageScale="1" pageWidth="850" pageHeight="1100" background="none" math="0" shadow="1">
      <root>
        <mxCell id="gfnui36quzqX91a5-gpx-0" />
        <mxCell id="gfnui36quzqX91a5-gpx-1" parent="gfnui36quzqX91a5-gpx-0" />
        <mxCell id="gfnui36quzqX91a5-gpx-2" value="" style="rounded=0;whiteSpace=wrap;html=1;" vertex="1" parent="gfnui36quzqX91a5-gpx-1">
          <mxGeometry width="780" height="40" as="geometry" />
        </mxCell>
        <mxCell id="gfnui36quzqX91a5-gpx-3" value="Home" style="rounded=1;whiteSpace=wrap;html=1;" vertex="1" parent="gfnui36quzqX91a5-gpx-1">
          <mxGeometry x="10" y="5" width="70" height="30" as="geometry" />
        </mxCell>
        <mxCell id="gfnui36quzqX91a5-gpx-4" value="AI In Action" style="rounded=1;whiteSpace=wrap;html=1;" vertex="1" parent="gfnui36quzqX91a5-gpx-1">
          <mxGeometry x="90" y="5" width="70" height="30" as="geometry" />
        </mxCell>
        <mxCell id="gfnui36quzqX91a5-gpx-6" value="Ethics" style="rounded=1;whiteSpace=wrap;html=1;" vertex="1" parent="gfnui36quzqX91a5-gpx-1">
          <mxGeometry x="170" y="5" width="70" height="30" as="geometry" />
        </mxCell>
        <mxCell id="gfnui36quzqX91a5-gpx-7" value="INFROMATION" style="whiteSpace=wrap;html=1;aspect=fixed;" vertex="1" parent="gfnui36quzqX91a5-gpx-1">
          <mxGeometry y="90" width="310" height="310" as="geometry" />
        </mxCell>
        <mxCell id="gfnui36quzqX91a5-gpx-8" value="IMAGE" style="whiteSpace=wrap;html=1;aspect=fixed;" vertex="1" parent="gfnui36quzqX91a5-gpx-1">
          <mxGeometry x="470" y="90" width="310" height="310" as="geometry" />
        </mxCell>
        <mxCell id="gfnui36quzqX91a5-gpx-9" value="INFROMATION" style="whiteSpace=wrap;html=1;aspect=fixed;" vertex="1" parent="gfnui36quzqX91a5-gpx-1">
          <mxGeometry x="470" y="440" width="310" height="310" as="geometry" />
        </mxCell>
        <mxCell id="gfnui36quzqX91a5-gpx-10" value="IMAGE" style="whiteSpace=wrap;html=1;aspect=fixed;" vertex="1" parent="gfnui36quzqX91a5-gpx-1">
          <mxGeometry y="450" width="310" height="310" as="geometry" />
        </mxCell>
        <mxCell id="gfnui36quzqX91a5-gpx-11" value="TITLE" style="rounded=1;whiteSpace=wrap;html=1;" vertex="1" parent="gfnui36quzqX91a5-gpx-1">
          <mxGeometry y="40" width="190" height="40" as="geometry" />
        </mxCell>
        <mxCell id="gfnui36quzqX91a5-gpx-12" value="TITLE" style="rounded=1;whiteSpace=wrap;html=1;" vertex="1" parent="gfnui36quzqX91a5-gpx-1">
          <mxGeometry x="590" y="400" width="190" height="40" as="geometry" />
        </mxCell>
        <mxCell id="gfnui36quzqX91a5-gpx-13" value="RESOURCES" style="rounded=1;whiteSpace=wrap;html=1;" vertex="1" parent="gfnui36quzqX91a5-gpx-1">
          <mxGeometry y="880" width="530" height="60" as="geometry" />
        </mxCell>
        <mxCell id="gfnui36quzqX91a5-gpx-14" value="Search" style="rounded=1;whiteSpace=wrap;html=1;" vertex="1" parent="gfnui36quzqX91a5-gpx-1">
          <mxGeometry x="660" y="2.5" width="120" height="35" as="geometry" />
        </mxCell>
        <mxCell id="MVFlVph6rV33cdFSu082-1" value="" style="endArrow=none;html=1;rounded=0;sketch=1;hachureGap=4;jiggle=2;curveFitting=1;fontFamily=Architects Daughter;fontSource=https%3A%2F%2Ffonts.googleapis.com%2Fcss%3Ffamily%3DArchitects%2BDaughter;" edge="1" parent="gfnui36quzqX91a5-gpx-1">
          <mxGeometry width="50" height="50" relative="1" as="geometry">
            <mxPoint x="850" y="830" as="sourcePoint" />
            <mxPoint y="830" as="targetPoint" />
            <Array as="points">
              <mxPoint x="460" y="830" />
            </Array>
          </mxGeometry>
        </mxCell>
      </root>
    </mxGraphModel>
  </diagram>
</mxfile>
